<?xml version="1.0" standalone="no"?>
<!DOCTYPE svg PUBLIC "-//W3C//DTD SVG 20010904//EN"
 "http://www.w3.org/TR/2001/REC-SVG-20010904/DTD/svg10.dtd">
<svg version="1.0" xmlns="http://www.w3.org/2000/svg"
 width="260.000000pt" height="280.000000pt" viewBox="0 0 260.000000 280.000000"
 preserveAspectRatio="xMidYMid meet">

<g transform="translate(0.000000,280.000000) scale(0.100000,-0.100000)"
fill="#000000" stroke="none">
<path d="M1105 2024 c-163 -18 -262 -36 -285 -52 -38 -28 -126 -140 -160 -203
-21 -41 -37 -58 -55 -61 -33 -7 -35 -3 -35 54 0 47 -1 48 -31 48 -34 0 -92
-24 -110 -46 -17 -20 -3 -64 21 -64 26 0 25 -8 -2 -38 l-23 -25 31 22 c47 34
151 41 196 13 46 -29 176 -162 158 -162 -8 0 -81 9 -162 21 -81 12 -155 19
-163 15 -19 -7 -22 -114 -2 -121 6 -3 65 -9 131 -13 131 -8 143 -5 209 51 l39
32 -47 64 c-25 34 -65 83 -87 107 -23 25 -39 46 -37 48 9 9 436 26 640 26 204
0 619 -17 628 -26 2 -2 -21 -34 -51 -71 -77 -96 -108 -139 -108 -149 0 -5 24
-26 53 -47 l52 -39 129 5 c148 5 156 10 156 84 0 30 -5 45 -16 50 -8 3 -85 -4
-170 -17 -86 -12 -158 -19 -161 -17 -8 8 72 91 133 138 l55 42 71 -6 c54 -5
77 -11 96 -29 l26 -23 -17 27 c-21 33 -21 38 -2 38 18 0 38 37 31 55 -7 20
-80 55 -115 55 -33 0 -41 -14 -41 -69 0 -35 -2 -38 -25 -33 -18 3 -36 22 -62
66 -44 74 -137 192 -161 205 -44 23 -235 42 -457 46 -126 1 -248 1 -270 -1z
m605 -38 c99 -15 96 -16 -115 -45 -82 -12 -197 -32 -255 -45 -90 -20 -113 -22
-162 -13 -59 11 -72 20 -40 30 9 3 73 26 142 52 l125 45 110 -6 c61 -3 148
-11 195 -18z m-625 -146 c17 -7 18 -9 2 -9 -9 -1 -74 -21 -143 -47 -69 -25
-130 -44 -136 -42 -5 2 34 27 89 56 98 52 142 62 188 42z m-561 -397 c5 -4 6
1 3 12 -15 56 -17 76 -8 71 5 -3 12 -24 16 -46 6 -37 8 -39 48 -43 31 -2 24
-4 -23 -5 l-65 -2 -2 53 -1 52 11 -42 c7 -23 16 -45 21 -50z m1612 40 c-6 -50
7 -36 19 21 9 43 14 27 8 -26 l-6 -48 -66 2 c-61 1 -62 1 -21 7 43 6 45 7 54
49 12 57 20 54 12 -5z m-1381 -53 c-3 -5 -32 -9 -63 -8 l-57 1 60 7 c33 4 61
7 63 8 2 1 0 -2 -3 -8z m1233 -7 c-16 -2 -40 -2 -55 0 -16 2 -3 4 27 4 30 0
43 -2 28 -4z"/>
<path d="M1145 1700 c8 -13 345 -13 365 0 10 6 -50 10 -178 10 -126 0 -191 -3
-187 -10z"/>
<path d="M1105 1491 l-140 -6 -43 -34 c-51 -41 -48 -53 5 -20 l38 24 360 0
c356 0 360 0 405 -23 l45 -23 -42 40 -42 41 -98 0 c-54 0 -154 2 -223 4 -69 2
-188 0 -265 -3z"/>
<path d="M402 1238 c-10 -18 -29 -50 -41 -70 -17 -28 -19 -38 -9 -38 8 0 27
23 43 50 16 28 32 50 35 50 3 0 19 -22 35 -50 16 -27 35 -50 42 -50 7 0 13 2
13 5 0 12 -82 135 -90 135 -5 0 -17 -15 -28 -32z"/>
<path d="M570 1210 c0 -68 12 -80 78 -80 53 0 72 23 72 88 0 29 -4 52 -10 52
-5 0 -10 -20 -10 -44 0 -52 -19 -76 -59 -76 -39 0 -51 17 -51 72 0 26 -4 48
-10 48 -6 0 -10 -27 -10 -60z"/>
<path d="M770 1260 c0 -5 14 -10 30 -10 l30 0 0 -60 c0 -33 4 -60 10 -60 6 0
10 27 10 60 l0 60 30 0 c17 0 30 5 30 10 0 6 -30 10 -70 10 -40 0 -70 -4 -70
-10z"/>
<path d="M977 1252 c-10 -10 -17 -35 -17 -55 0 -47 31 -70 91 -65 72 5 102 74
53 122 -23 23 -106 21 -127 -2z m104 -12 c12 -7 19 -21 19 -40 0 -46 -69 -69
-104 -34 -48 48 21 108 85 74z"/>
<path d="M1196 1212 c-18 -66 -20 -82 -7 -82 5 0 14 20 20 45 6 25 13 45 16
45 2 0 13 -20 24 -45 11 -25 24 -45 29 -45 6 0 18 20 29 45 10 25 21 45 25 45
3 0 9 -18 13 -40 6 -38 20 -58 31 -47 8 8 -30 130 -42 134 -5 2 -20 -20 -33
-49 l-22 -53 -24 53 c-13 28 -28 52 -33 52 -5 0 -17 -26 -26 -58z"/>
<path d="M1452 1254 c-29 -20 -30 -76 -2 -104 29 -29 99 -28 128 3 27 29 28
71 2 97 -25 25 -95 27 -128 4z m112 -26 c20 -29 20 -34 -4 -58 -35 -35 -110
-16 -110 28 0 49 85 71 114 30z"/>
<path d="M1650 1260 c0 -5 11 -10 25 -10 24 0 25 -3 25 -60 0 -47 3 -60 15
-60 12 0 15 13 15 60 0 57 1 60 25 60 14 0 25 5 25 10 0 6 -28 10 -65 10 -37
0 -65 -4 -65 -10z"/>
<path d="M1840 1200 c0 -40 4 -70 10 -70 6 0 10 30 10 70 0 40 -4 70 -10 70
-6 0 -10 -30 -10 -70z"/>
<path d="M1963 1200 c23 -38 46 -70 52 -70 14 0 89 130 80 138 -8 8 -32 -21
-58 -69 l-19 -34 -16 21 c-10 12 -25 36 -34 53 -9 17 -24 31 -32 31 -11 0 -4
-19 27 -70z"/>
<path d="M2160 1200 l0 -70 65 0 c37 0 65 4 65 10 0 6 -22 10 -50 10 l-50 0 0
50 0 50 50 0 c28 0 50 5 50 10 0 6 -28 10 -65 10 l-65 0 0 -70z"/>
<path d="M2210 1200 c0 -5 16 -10 35 -10 19 0 35 5 35 10 0 6 -16 10 -35 10
-19 0 -35 -4 -35 -10z"/>
<path d="M720 998 c1 -38 2 -41 14 -25 7 9 25 17 40 17 23 0 27 4 24 23 -2 18
-10 23 -40 25 l-38 3 0 -43z m65 23 c3 -5 1 -13 -5 -16 -15 -9 -43 3 -35 15 8
13 32 13 40 1z"/>
<path d="M820 1006 c0 -19 5 -38 10 -41 6 -3 10 -1 10 4 0 14 33 14 47 0 7 -7
8 1 4 28 -6 34 -10 38 -39 41 -31 3 -32 2 -32 -32z m60 4 c0 -5 -9 -10 -20
-10 -11 0 -20 5 -20 10 0 6 9 10 20 10 11 0 20 -4 20 -10z"/>
<path d="M930 1025 c-7 -8 -10 -25 -6 -40 5 -20 13 -25 38 -25 34 0 29 14 -7
23 -15 3 -13 5 8 6 33 1 27 21 -6 21 -17 0 -19 2 -7 9 8 6 17 8 21 5 4 -2 10
0 14 6 10 16 -41 12 -55 -5z"/>
<path d="M1287 1033 c-11 -10 -8 -71 3 -78 6 -3 10 4 10 15 0 16 4 20 16 16
10 -4 22 1 31 11 8 10 12 13 9 6 -3 -6 -2 -22 3 -35 8 -20 10 -17 10 20 1 43
-6 51 -27 30 -9 -9 -16 -8 -30 5 -10 9 -22 14 -25 10z"/>
<path d="M1467 1026 c-6 -16 11 -36 30 -36 7 0 13 -4 13 -10 0 -5 -10 -10 -22
-10 -16 0 -19 -3 -11 -11 8 -8 17 -8 32 0 28 16 26 27 -6 45 -26 14 -27 15 -5
16 12 0 22 5 22 10 0 15 -47 12 -53 -4z"/>
<path d="M1566 1000 c-19 -47 -19 -50 -6 -50 6 0 10 7 10 15 0 8 9 15 20 15
11 0 20 -7 20 -15 0 -8 5 -15 10 -15 11 0 4 42 -12 73 -14 26 -24 21 -42 -23z
m34 0 c0 -5 -5 -10 -11 -10 -5 0 -7 5 -4 10 3 6 8 10 11 10 2 0 4 -4 4 -10z"/>
<path d="M1650 1000 c0 -39 1 -40 33 -39 30 1 30 2 7 8 -21 6 -25 13 -22 39 1
18 -2 32 -8 32 -5 0 -10 -18 -10 -40z"/>
<path d="M1739 1016 c-16 -35 3 -58 45 -54 28 3 31 6 31 38 0 32 -3 35 -32 38
-27 3 -35 -1 -44 -22z m69 -18 c-3 -25 -34 -36 -50 -20 -17 17 -1 42 27 42 22
0 26 -4 23 -22z"/>
<path d="M1918 1014 l-3 -26 -27 21 c-14 12 -29 21 -32 21 -10 0 -7 -58 4 -65
6 -4 10 6 10 21 l0 28 29 -28 29 -28 4 41 c4 44 -9 58 -14 15z"/>
<path d="M1021 989 c2 -31 3 -36 6 -16 4 23 7 26 19 16 11 -9 17 -9 28 0 12
10 15 7 18 -16 l4 -28 8 27 c5 16 5 35 2 44 -6 15 -8 15 -26 -1 -19 -17 -21
-17 -40 0 -20 18 -20 17 -19 -26z"/>
<path d="M1136 993 c9 -52 14 -54 14 -5 0 23 -5 42 -10 42 -7 0 -8 -14 -4 -37z"/>
<path d="M1170 1006 c0 -30 22 -49 52 -44 19 2 23 10 25 38 1 19 -1 26 -4 15
-13 -48 -53 -55 -53 -9 0 13 -4 24 -10 24 -5 0 -10 -11 -10 -24z"/>
</g>
</svg>
