<svg width="100%" viewBox="0 0 25 25" xmlns="http://www.w3.org/2000/svg"><defs><style>.phone{fill:none;stroke:var(--base-dark-red);stroke-linecap:round;stroke-linejoin:round;stroke-width:1.5px;}</style></defs><g id="ic-contact-phone-time"><path class="phone" d="M15.67,22.42,18.06,20a2,2,0,0,0,0-2.83L16.7,15.84a2,2,0,0,0-2.83,0l-.9.9h0A16.49,16.49,0,0,1,7.32,11.1l0,0,.9-.9a2,2,0,0,0,0-2.83L6.87,6A2,2,0,0,0,4,6L1.65,8.4a1,1,0,0,0-.13,1.26h0A46.26,46.26,0,0,0,14.41,22.55h0A1,1,0,0,0,15.67,22.42Z"/><path class="phone" d="M8.06,3.1A9.5,9.5,0,0,1,21,15.81"/><polyline class="phone" points="13 5.68 13 11.28 17 11.28"/></g></svg>